<?xml version="1.0" standalone="no"?>
<!DOCTYPE svg PUBLIC "-//W3C//DTD SVG 20010904//EN"
 "http://www.w3.org/TR/2001/REC-SVG-20010904/DTD/svg10.dtd">
<svg version="1.0" xmlns="http://www.w3.org/2000/svg"
 viewBox="0 0 2600.000000 2604.000000"
 preserveAspectRatio="xMidYMid meet">
<metadata>
Created by potrace 1.13, written by Peter Selinger 2001-2015
</metadata>
<g transform="translate(0.000000,2604.000000) scale(0.100000,-0.100000)"
fill="#000000" stroke="none">
<path d="M17564 20760 c-51 -4 -114 -12 -140 -18 -33 -7 -115 -7 -244 -1 -338
16 -2023 23 -2485 10 -2424 -67 -4071 -316 -4960 -751 -195 -95 -258 -136
-545 -353 -1564 -1186 -3072 -2500 -3925 -3422 -409 -442 -736 -864 -891
-1150 -26 -47 -79 -113 -165 -205 -630 -671 -1066 -1340 -1243 -1910 -45 -147
-73 -286 -86 -434 l-10 -117 -98 -122 c-429 -533 -688 -965 -718 -1199 -4 -29
-22 -92 -40 -140 -79 -205 -154 -511 -191 -783 -27 -202 -24 -642 5 -830 59
-373 130 -586 336 -1005 170 -348 289 -518 501 -718 212 -200 461 -331 755
-397 115 -26 405 -31 554 -10 347 48 710 189 1115 433 l124 75 121 -27 c977
-218 2073 -436 2194 -436 27 0 46 -11 95 -56 264 -239 653 -394 1127 -449 146
-18 484 -20 650 -4 l115 10 110 109 110 110 27 -138 c124 -631 458 -1123 913
-1342 121 -59 239 -95 465 -141 198 -41 212 -42 395 -43 155 0 212 4 309 22
841 158 1476 847 1886 2048 l51 149 161 100 c89 55 189 117 222 137 57 34 118
50 856 227 3325 795 5213 1231 5326 1231 14 0 24 -6 24 -14 0 -29 72 -234 121
-344 111 -250 248 -450 428 -624 270 -263 577 -397 951 -417 249 -13 441 12
668 90 457 156 829 469 1066 899 158 285 261 621 311 1018 33 258 36 744 5
1020 l-11 100 50 66 c125 165 206 422 218 696 l6 135 -47 175 c-161 596 -341
1070 -479 1262 -41 57 -70 115 -111 220 -133 346 -223 661 -233 812 l-5 91 51
70 c100 134 151 233 166 322 10 61 -15 126 -77 202 l-53 64 0 111 c0 88 6 135
29 226 42 173 37 235 -32 372 -76 149 -83 228 -36 427 30 133 19 203 -61 376
-20 44 -72 181 -115 305 -353 1012 -520 1411 -865 2060 -124 234 -237 391
-444 614 l-101 110 0 197 0 197 -272 67 c-1839 449 -3307 686 -3934 635z
m3671 -1284 c50 -14 110 -33 135 -44 l45 -19 294 -579 c162 -319 359 -707 439
-864 80 -157 140 -280 135 -275 -6 6 -232 291 -503 635 -271 344 -516 652
-545 685 -88 102 -164 209 -205 289 -92 178 -26 234 205 172z m-11235 -71
c2760 -351 4458 -560 4840 -596 69 -7 126 -13 128 -15 2 -1 -79 -114 -180
-251 -1283 -1732 -2127 -2953 -2309 -3338 -44 -93 -53 -105 -129 -170 -171
-147 -347 -257 -480 -301 -32 -10 -85 -18 -126 -18 -63 0 -78 3 -123 31 l-51
32 -318 21 c-3013 195 -5250 462 -5824 695 -112 46 -188 102 -188 140 0 20
516 588 945 1039 1308 1377 2329 2289 2990 2671 138 80 263 135 295 129 14 -2
252 -33 530 -69z m9030 -173 l35 -8 58 -209 c153 -552 335 -1316 411 -1720 72
-384 89 -531 90 -757 1 -113 -1 -208 -4 -211 -3 -2 -747 -260 -1654 -573
l-1648 -570 -182 90 c-531 266 -995 340 -1375 218 -50 -17 -91 -25 -91 -20 0
5 -27 213 -61 463 l-60 453 76 143 c666 1247 1280 2068 1648 2204 34 13 85 27
112 33 28 5 115 33 194 61 609 218 1327 374 1891 411 143 9 501 4 560 -8z
m571 -111 c108 -36 214 -78 236 -93 73 -48 293 -332 518 -668 272 -406 446
-740 468 -900 10 -70 0 -87 -97 -164 -172 -138 -312 -301 -381 -447 -39 -82
-75 -212 -75 -269 l0 -37 -167 -61 c-92 -34 -168 -60 -169 -59 -1 1 -23 146
-49 322 -184 1269 -366 2158 -492 2409 -22 43 -23 48 -6 41 10 -5 106 -38 214
-74z m-15646 -5006 c9 -77 19 -142 21 -144 3 -3 26 16 52 42 67 66 117 65 152
-4 27 -52 27 -193 0 -333 -37 -192 -135 -497 -262 -821 -65 -163 -76 -185
-122 -231 -98 -100 -177 -97 -282 11 -47 48 -75 89 -122 185 -34 68 -62 129
-62 137 0 18 -6 17 -48 -12 -20 -14 -44 -25 -54 -25 -69 0 -45 228 47 462 64
160 160 323 295 498 68 88 356 387 365 379 2 -2 11 -67 20 -144z m7105 -933
c25 -12 43 -34 65 -76 28 -55 30 -67 30 -165 0 -95 -3 -114 -31 -183 -51 -126
-133 -239 -278 -383 -272 -270 -609 -498 -867 -587 -82 -27 -108 -32 -199 -32
-96 -1 -110 2 -162 27 -35 17 -76 49 -105 82 l-48 53 -100 -60 c-145 -87 -425
-222 -535 -259 -119 -40 -249 -51 -298 -25 -61 32 -102 154 -102 306 0 116 17
188 71 290 51 99 127 191 231 278 46 38 108 96 138 127 119 124 301 254 453
325 135 63 245 91 382 97 143 6 239 -10 357 -61 l79 -34 89 49 c184 99 394
188 535 225 114 29 244 32 295 6z m11794 -1462 c401 -102 687 -551 776 -1219
31 -230 28 -587 -5 -782 -91 -531 -358 -993 -706 -1225 -153 -102 -293 -145
-469 -145 -324 0 -584 140 -770 415 -176 261 -262 601 -262 1036 0 437 81 791
268 1165 102 206 185 326 324 466 151 153 298 243 472 289 102 26 269 27 372
0z m-10345 -2191 c211 -54 380 -156 545 -330 304 -319 463 -821 426 -1341 -19
-264 -86 -492 -230 -783 -226 -458 -554 -833 -904 -1033 -168 -97 -307 -134
-491 -133 -575 3 -967 502 -1081 1375 -24 184 -29 510 -10 651 48 360 208 721
453 1025 83 103 272 283 370 353 162 115 360 204 523 233 105 19 292 11 399
-17z"/>
</g>
</svg>
